<svg width="132" height="48" viewBox="0 0 132 48" fill="none" xmlns="http://www.w3.org/2000/svg">
<g clip-path="url(#clip0_582_41)">
<rect opacity="0.396973" width="132" height="48" rx="24" fill="#1C2E3D"/>
<path d="M32.4546 28H30.5854V20.2495H32.1592L35.4463 24.7559H35.4893V20.2495H37.3584V28H35.8008L32.4976 23.4507H32.4546V28ZM45.8467 26.4102V28H40.5347V20.2495H45.8467V21.8394H42.5059V23.3809H45.6479V24.8311H42.5059V26.4102H45.8467ZM53.7817 23.1606L52.4766 28H50.6182L48.5933 20.2495H50.6289L51.6763 25.4863H51.7192L53.0137 20.2495H54.5928L55.8872 25.4863H55.9302L56.9775 20.2495H59.0132L56.9883 28H55.1299L53.8247 23.1606H53.7817ZM69.6572 28H65.9565V20.2495H69.5605C70.3232 20.2495 70.9212 20.4214 71.3545 20.7651C71.7878 21.1089 72.0044 21.5815 72.0044 22.1831C72.0044 22.6128 71.8594 22.9852 71.5693 23.3003C71.2829 23.6154 70.923 23.8034 70.4897 23.8643V23.9072C71.0197 23.9323 71.4637 24.1203 71.8218 24.4712C72.1834 24.8221 72.3643 25.2536 72.3643 25.7656C72.3643 26.446 72.119 26.9884 71.6284 27.3931C71.1414 27.7977 70.4844 28 69.6572 28ZM67.9277 21.646V23.4077H68.9429C69.3009 23.4077 69.5802 23.3289 69.7808 23.1714C69.9849 23.0103 70.0869 22.79 70.0869 22.5107C70.0869 22.2386 69.9938 22.0273 69.8076 21.877C69.625 21.723 69.369 21.646 69.0396 21.646H67.9277ZM67.9277 26.6035H69.0986C69.5068 26.6035 69.8184 26.5176 70.0332 26.3457C70.2516 26.1702 70.3608 25.9196 70.3608 25.5938C70.3608 25.2786 70.2498 25.0352 70.0278 24.8633C69.8058 24.6914 69.4925 24.6055 69.0879 24.6055H67.9277V26.6035ZM76.0132 21.1948C76.7043 20.4751 77.637 20.1152 78.8115 20.1152C79.986 20.1152 80.917 20.4751 81.6045 21.1948C82.292 21.9146 82.6357 22.8921 82.6357 24.1274C82.6357 25.3628 82.292 26.3403 81.6045 27.0601C80.917 27.7762 79.986 28.1343 78.8115 28.1343C77.6335 28.1343 76.7007 27.7762 76.0132 27.0601C75.3257 26.3403 74.9819 25.3628 74.9819 24.1274C74.9819 22.8921 75.3257 21.9146 76.0132 21.1948ZM80.1328 22.3711C79.8034 21.9342 79.363 21.7158 78.8115 21.7158C78.2601 21.7158 77.8179 21.9342 77.4849 22.3711C77.1554 22.8044 76.9907 23.3898 76.9907 24.1274C76.9907 24.8615 77.1554 25.4469 77.4849 25.8838C77.8143 26.3171 78.2565 26.5337 78.8115 26.5337C79.363 26.5337 79.8034 26.3171 80.1328 25.8838C80.4658 25.4469 80.6323 24.8615 80.6323 24.1274C80.6323 23.3898 80.4658 22.8044 80.1328 22.3711ZM86.4136 21.1948C87.1047 20.4751 88.0374 20.1152 89.2119 20.1152C90.3864 20.1152 91.3174 20.4751 92.0049 21.1948C92.6924 21.9146 93.0361 22.8921 93.0361 24.1274C93.0361 25.3628 92.6924 26.3403 92.0049 27.0601C91.3174 27.7762 90.3864 28.1343 89.2119 28.1343C88.0339 28.1343 87.1011 27.7762 86.4136 27.0601C85.7261 26.3403 85.3823 25.3628 85.3823 24.1274C85.3823 22.8921 85.7261 21.9146 86.4136 21.1948ZM90.5332 22.3711C90.2038 21.9342 89.7633 21.7158 89.2119 21.7158C88.6605 21.7158 88.2183 21.9342 87.8853 22.3711C87.5558 22.8044 87.3911 23.3898 87.3911 24.1274C87.3911 24.8615 87.5558 25.4469 87.8853 25.8838C88.2147 26.3171 88.6569 26.5337 89.2119 26.5337C89.7633 26.5337 90.2038 26.3171 90.5332 25.8838C90.8662 25.4469 91.0327 24.8615 91.0327 24.1274C91.0327 23.3898 90.8662 22.8044 90.5332 22.3711ZM97.9688 28H95.9976V20.2495H97.9688V23.6548H98.0117L100.649 20.2495H102.765L100.063 23.6924L102.921 28H100.606L98.6294 24.9707L97.9688 25.8086V28Z" fill="white"/>
</g>
<defs>
<clipPath id="clip0_582_41">
<rect width="132" height="48" fill="white"/>
</clipPath>
</defs>
</svg>
